<svg width="668" height="668" viewBox="0 0 668 668" fill="none" xmlns="http://www.w3.org/2000/svg">
<path d="M634 234V34M634 34H434M634 34L367.333 300.667M267.333 100.667H194C137.995 100.667 109.992 100.667 88.601 111.566C69.7847 121.153 54.4867 136.451 44.8993 155.268C34 176.659 34 204.661 34 260.667V474C34 530.007 34 558.007 44.8993 579.4C54.4867 598.217 69.7847 613.513 88.601 623.1C109.992 634 137.995 634 194 634H407.333C463.34 634 491.34 634 512.733 623.1C531.55 613.513 546.847 598.217 556.433 579.4C567.333 558.007 567.333 530.007 567.333 474V400.667" stroke="#0D1115" stroke-width="66.6667" stroke-linecap="round" stroke-linejoin="round"/>
</svg>
