<svg width="534" height="534" viewBox="0 0 534 534" fill="none" xmlns="http://www.w3.org/2000/svg">
<path d="M491 0.332259H45.9999C40.2642 0.063592 34.5316 0.9286 29.1306 2.87827C23.7296 4.82793 18.7663 7.82359 14.5243 11.6936C10.2826 15.5639 6.84559 20.2329 4.41059 25.4329C1.97559 30.6333 0.589919 36.2626 0.333252 41.9989V488C0.669252 500.003 5.58858 511.427 14.0809 519.917C22.5732 528.41 33.9946 533.33 45.9999 533.667H491C502.67 533.147 513.673 528.073 521.65 519.537C529.627 511 533.94 499.68 533.667 488V41.9989C533.763 36.4156 532.717 30.8719 530.593 25.7073C528.47 20.5429 525.313 15.8666 521.317 11.9649C517.323 8.06359 512.573 5.0196 507.36 3.01927C502.147 1.01893 496.58 0.104592 491 0.332259ZM167 445H89.3333V207.333H167V445ZM130 171.332C124.58 171.521 119.18 170.587 114.139 168.589C109.097 166.591 104.523 163.572 100.704 159.722C96.8852 155.872 93.9036 151.273 91.9469 146.216C89.9899 141.158 89.1003 135.75 89.3333 130.332C89.0936 124.856 90.0012 119.39 91.9982 114.285C93.9952 109.179 97.0372 104.548 100.929 100.688C104.821 96.8269 109.477 93.8226 114.598 91.8672C119.719 89.9116 125.192 89.0483 130.667 89.3323C136.086 89.1436 141.487 90.0773 146.528 92.0753C151.57 94.0733 156.144 97.0923 159.962 100.943C163.781 104.793 166.763 109.391 168.72 114.449C170.677 119.507 171.566 124.914 171.333 130.332C171.573 135.809 170.665 141.275 168.668 146.38C166.671 151.485 163.629 156.117 159.738 159.977C155.846 163.838 151.19 166.842 146.069 168.797C140.948 170.753 135.474 171.616 130 171.332ZM445 445H367V315C367 284 356 262.667 328.333 262.667C319.74 262.74 311.377 265.47 304.397 270.483C297.413 275.497 292.153 282.547 289.333 290.667C287.167 296.753 286.26 303.217 286.667 309.667V445H210V207.333H286.667V240.667C293.483 228.143 303.627 217.75 315.98 210.63C328.333 203.513 342.413 199.949 356.667 200.332C407 200.332 445 233.667 445 304.667V445Z" fill="#0D1115"/>
</svg>
