<svg xmlns="http://www.w3.org/2000/svg" width="20.18" height="20.181" viewBox="0 0 20.18 20.181">
  <path id="Path_5613" data-name="Path 5613" d="M12.48,22.321a.265.265,0,0,1-.265-.265v-2.21a.265.265,0,0,1,.53,0v2.21A.265.265,0,0,1,12.48,22.321Zm6.77-2.8a.265.265,0,0,1-.188-.077L17.5,17.878a.266.266,0,0,1,.376-.376l1.562,1.562a.265.265,0,0,1-.188.453Zm-13.541,0a.265.265,0,0,1-.187-.453L7.085,17.5a.265.265,0,1,1,.375.376L5.9,19.44A.267.267,0,0,1,5.71,19.517ZM12.48,17.9A5.421,5.421,0,1,1,17.9,12.481,5.427,5.427,0,0,1,12.48,17.9Zm0-10.312a4.891,4.891,0,1,0,4.891,4.891A4.9,4.9,0,0,0,12.48,7.59Zm9.575,5.156h-2.21a.265.265,0,1,1,0-.53h2.21a.265.265,0,0,1,0,.53Zm-16.941,0H2.905a.265.265,0,1,1,0-.53h2.21a.265.265,0,0,1,0,.53ZM17.688,7.538a.265.265,0,0,1-.188-.452l1.562-1.562a.265.265,0,1,1,.376.375L17.876,7.461A.269.269,0,0,1,17.688,7.538Zm-10.416,0a.264.264,0,0,1-.187-.077L5.522,5.9A.265.265,0,1,1,5.9,5.523L7.459,7.085a.266.266,0,0,1-.187.453ZM12.48,5.381a.265.265,0,0,1-.265-.265V2.906a.265.265,0,0,1,.53,0v2.21A.265.265,0,0,1,12.48,5.381Z" transform="translate(-2.39 -2.391)" fill="#fff" stroke="#fff" stroke-width="0.5"/>
</svg>
